<?xml version="1.0" encoding="utf-8"?>
<!-- Generator: Adobe Illustrator 22.1.0, SVG Export Plug-In . SVG Version: 6.00 Build 0)  -->
<svg version="1.1" id="Layer_1" xmlns="http://www.w3.org/2000/svg" xmlns:xlink="http://www.w3.org/1999/xlink" x="0px" y="0px"
	 viewBox="0 0 420.9 97.4" style="enable-background:new 0 0 420.9 97.4;" xml:space="preserve">
<style type="text/css">
	.st0{fill:url(#SVGID_1_);}
	.st1{fill:url(#SVGID_2_);}
	.st2{fill:url(#SVGID_3_);}
	.st3{fill:url(#SVGID_4_);}
	.st4{fill:url(#SVGID_5_);}
	.st5{fill:url(#SVGID_6_);}
	.st6{fill:url(#SVGID_7_);}
	.st7{fill:url(#SVGID_8_);}
	.st8{fill:url(#SVGID_9_);}
	.st9{fill:url(#SVGID_10_);}
	.st10{fill:url(#SVGID_11_);}
	.st11{fill:url(#SVGID_12_);}
	.st12{fill:url(#SVGID_13_);}
</style>
<g>
	
		<linearGradient id="SVGID_1_" gradientUnits="userSpaceOnUse" x1="22.6692" y1="10.4533" x2="105.4964" y2="10.4533" gradientTransform="matrix(1 0 -8.750000e-02 1 -0.7554 0)">
		<stop  offset="0" style="stop-color:#F69220"/>
		<stop  offset="1" style="stop-color:#EE6124"/>
	</linearGradient>
	<path class="st0" d="M25.6,0c17.6,0,35.2,0,52.8,0c8.8,0,17.6,0,26.4,0c-0.8,0.6-1.7,1-2.6,1.6C93.9,6.3,85.2,10,76.5,13
		c-4.8,1.6-9.6,3-14.4,4.2c-7,1.7-14,2.6-20.9,3.2c-7.1,0.5-14.1,0.7-20.9,0.4l-0.1,0C21.9,13.8,23.7,6.9,25.6,0z"/>
</g>
<g>
	
		<linearGradient id="SVGID_2_" gradientUnits="userSpaceOnUse" x1="26.4845" y1="23.1564" x2="26.4845" y2="29.1269" gradientTransform="matrix(1 0 -8.750000e-02 1 -0.7554 0)">
		<stop  offset="0" style="stop-color:#38495E"/>
		<stop  offset="1" style="stop-color:#466179"/>
	</linearGradient>
	<path class="st1" d="M20.2,20.8c6.9,0.3,13.9,0.1,20.9-0.4c-1.8,7.5-4,15-6.7,22.4c-2.3,6.3-5,12.6-8.3,18.6c-1.3,2.4-2.6,4.7-4,7
		c-6,9.7-12.8,19.2-20.9,27.8C0.8,96.6,0.4,97,0,97.4C3.3,84.7,6.7,72,10.1,59.2C13.4,46.4,16.8,33.6,20.2,20.8z"/>
</g>
<g>
	
		<linearGradient id="SVGID_3_" gradientUnits="userSpaceOnUse" x1="45.8372" y1="47.6583" x2="37.7596" y2="45.2" gradientTransform="matrix(1 0 -8.750000e-02 1 -0.7554 0)">
		<stop  offset="0" style="stop-color:#F69220"/>
		<stop  offset="1" style="stop-color:#EE6124"/>
	</linearGradient>
	<path class="st2" d="M34.4,42.8c0.4,0,0.7,0,1.1,0c13.8,0,27.6,0,41.4,0c2.5,0,5,0,7.5,0c-0.8,0.6-1.7,1-2.5,1.6
		c-2.3,1.3-4.6,2.5-6.9,3.6c-0.4,0.2-0.8,0.4-1.2,0.6c-2.3,1-4.6,2.1-6.9,3c-7.4,3-14.9,5.5-22.4,7.3c-2.9,0.7-5.8,1.2-8.7,1.7
		c-2.9,0.5-5.8,0.8-8.7,1c-0.3,0-0.7,0-1,0C29.4,55.4,32.1,49.1,34.4,42.8z"/>
</g>
<g>
	
		<linearGradient id="SVGID_4_" gradientUnits="userSpaceOnUse" x1="55.1916" y1="54.9321" x2="56.9477" y2="57.7416" gradientTransform="matrix(1 0 -8.750000e-02 1 -0.7554 0)">
		<stop  offset="0" style="stop-color:#38495E"/>
		<stop  offset="1" style="stop-color:#466179"/>
	</linearGradient>
	<path class="st3" d="M66.9,51.5c2.3-0.9,4.6-2,6.9-3c1.3,0.1,2.6,0,4,0c1.1,0,2.2,0,3.3,0c-0.8,0.6-1.7,1-2.6,1.6
		c-8.4,4.7-17.1,8.4-25.9,11.5c-4.9,1.7-9.8,3.1-14.7,4.3c-4.5,1.1-8.9,1.8-13.4,2.3c-0.8,0.1-1.6,0.2-2.4,0.2c1.4-2.3,2.7-4.7,4-7
		c0.3,0,0.7,0,1,0c2.9-0.3,5.8-0.6,8.7-1c2.9-0.4,5.8-0.9,8.7-1.7C52,57,59.5,54.5,66.9,51.5z"/>
</g>
<g>
	<linearGradient id="SVGID_5_" gradientUnits="userSpaceOnUse" x1="118.4399" y1="41.1918" x2="118.4399" y2="71.1917">
		<stop  offset="0" style="stop-color:#38495E"/>
		<stop  offset="1" style="stop-color:#466179"/>
	</linearGradient>
	<path class="st4" d="M122,24.3c1.9,0,3.5,0.2,4.6,0.5c1.2,0.3,2.1,0.7,2.9,1l-3.9,8c-0.6-0.3-1.4-0.5-2.2-0.7
		c-0.9-0.1-1.7-0.2-2.6-0.2c-1.2,0-2.3,0.2-3.2,0.5c-0.9,0.3-1.7,0.8-2.4,1.4c-0.6,0.6-1.2,1.3-1.6,2.1c-0.4,0.8-0.8,1.7-1,2.7
		l-0.5,1.8h12.6l-2.3,8.5h-12.6l-7.4,27.5H92.2l10.1-37.9c1.2-4.6,3.5-8.3,6.9-11.1C112.6,25.6,116.9,24.3,122,24.3z M131,77.3
		h-10.2l9.6-36h10.2L131,77.3z M144.4,31c-0.5,1.9-1.5,3.3-3,4.4c-1.5,1.1-3.1,1.6-4.7,1.6s-2.9-0.5-3.8-1.6
		c-0.9-1.1-1.1-2.5-0.6-4.4c0.5-1.9,1.5-3.3,3-4.4c1.5-1.1,3.1-1.6,4.7-1.6c1.6,0,2.9,0.5,3.8,1.6C144.7,27.6,144.9,29.1,144.4,31z"
		/>
	<linearGradient id="SVGID_6_" gradientUnits="userSpaceOnUse" x1="155.2828" y1="41.1917" x2="155.2828" y2="71.1917">
		<stop  offset="0" style="stop-color:#38495E"/>
		<stop  offset="1" style="stop-color:#466179"/>
	</linearGradient>
	<path class="st5" d="M173.7,59.3c-0.8,2.9-1.9,5.5-3.4,7.8c-1.5,2.3-3.2,4.3-5.3,5.9c-2,1.6-4.3,2.9-6.9,3.8
		c-2.6,0.9-5.3,1.3-8.3,1.3c-1.2,0-2.5-0.1-3.8-0.2c-1.3-0.1-2.6-0.3-3.8-0.4c-1.3-0.2-2.4-0.4-3.6-0.7c-1.1-0.3-2.1-0.5-2.9-0.8
		l13.5-50.3l10.6-1.6l-4.8,17.9c1.3-0.5,2.6-0.9,3.9-1.2c1.3-0.3,2.7-0.4,4.1-0.4c2.6,0,4.7,0.4,6.4,1.3c1.7,0.9,3,2.2,3.9,3.8
		c0.9,1.6,1.4,3.6,1.4,5.9C174.8,53.9,174.5,56.5,173.7,59.3z M163.4,59.1c1.8-6.6,0.2-9.8-4.6-9.8c-1,0-2.1,0.1-3.2,0.4
		c-1.1,0.3-2,0.6-2.8,1l-5,18.5c0.5,0.1,1.1,0.2,1.9,0.2c0.8,0.1,1.6,0.1,2.5,0.1c2.8,0,5.1-1,7.1-2.9
		C161.2,64.7,162.6,62.2,163.4,59.1z"/>
	<linearGradient id="SVGID_7_" gradientUnits="userSpaceOnUse" x1="191.756" y1="41.1917" x2="191.756" y2="71.1918">
		<stop  offset="0" style="stop-color:#38495E"/>
		<stop  offset="1" style="stop-color:#466179"/>
	</linearGradient>
	<path class="st6" d="M174.7,59.6c0.9-3.2,2.1-6,3.7-8.4c1.6-2.4,3.4-4.4,5.5-6c2-1.6,4.2-2.8,6.5-3.6c2.3-0.8,4.5-1.2,6.7-1.2
		c5.1,0,8.7,1.6,10.8,4.7c2.1,3.1,2.4,7.7,0.8,13.8c-0.2,0.6-0.4,1.2-0.6,1.9c-0.2,0.7-0.4,1.3-0.6,1.9h-23.1
		c-0.3,2.1,0.2,3.8,1.6,5c1.4,1.2,3.6,1.8,6.5,1.8c1.9,0,3.7-0.2,5.6-0.5c1.9-0.3,3.5-0.8,4.7-1.3l-0.8,8.3
		c-0.6,0.3-1.4,0.5-2.4,0.8c-1,0.3-2.1,0.5-3.2,0.7c-1.2,0.2-2.4,0.4-3.7,0.5c-1.3,0.1-2.6,0.2-3.9,0.2c-3.2,0-5.9-0.5-8.1-1.4
		c-2.1-1-3.8-2.3-4.9-3.9c-1.1-1.7-1.8-3.6-1.9-5.9C173.7,64.7,174,62.3,174.7,59.6z M199.7,55.7c0.2-0.9,0.3-1.7,0.2-2.5
		c0-0.8-0.2-1.5-0.6-2.2c-0.4-0.6-0.9-1.2-1.6-1.6c-0.7-0.4-1.6-0.6-2.8-0.6c-1.1,0-2.2,0.2-3.1,0.6c-0.9,0.4-1.7,0.9-2.5,1.5
		c-0.7,0.6-1.3,1.4-1.9,2.2c-0.5,0.8-1,1.7-1.3,2.6H199.7z"/>
	<linearGradient id="SVGID_8_" gradientUnits="userSpaceOnUse" x1="222.875" y1="41.1918" x2="222.875" y2="71.1917">
		<stop  offset="0" style="stop-color:#38495E"/>
		<stop  offset="1" style="stop-color:#466179"/>
	</linearGradient>
	<path class="st7" d="M235.3,50.4c-0.9-0.2-1.9-0.5-3-0.7c-1.2-0.3-2.5-0.4-3.9-0.4c-0.6,0-1.4,0.1-2.3,0.2
		c-0.9,0.1-1.6,0.2-2.1,0.4l-7.4,27.5h-10.2l9.1-34c2-0.6,4.3-1.2,6.9-1.8c2.6-0.6,5.5-0.9,8.5-0.9c0.5,0,1.2,0,2,0.1
		c0.8,0.1,1.5,0.2,2.3,0.3c0.7,0.1,1.5,0.3,2.2,0.4c0.7,0.2,1.3,0.4,1.8,0.6L235.3,50.4z"/>
	<linearGradient id="SVGID_9_" gradientUnits="userSpaceOnUse" x1="259.8248" y1="93.1718" x2="256.8247" y2="32.1706">
		<stop  offset="0" style="stop-color:#F69220"/>
		<stop  offset="1" style="stop-color:#EE6124"/>
	</linearGradient>
	<path class="st8" d="M255,58.2c0.9-3.3,1.1-5.6,0.6-7c-0.5-1.4-1.7-2.1-3.8-2.1c-0.6,0-1.3,0-2,0.1c-0.7,0.1-1.4,0.1-2,0.2
		l-7.4,27.8h-10.2l9.3-34.7c0.9-0.2,2-0.5,3.2-0.7c1.2-0.3,2.5-0.5,3.9-0.7c1.4-0.2,2.7-0.4,4.1-0.5c1.4-0.1,2.8-0.2,4.1-0.2
		c2.6,0,4.6,0.3,6.1,1c1.4,0.7,2.6,1.4,3.4,2.4c1.7-1,3.6-1.9,5.7-2.5c2-0.6,3.9-0.9,5.5-0.9c2.9,0,5.1,0.4,6.8,1.2
		c1.6,0.8,2.8,1.9,3.5,3.4c0.7,1.5,1,3.2,0.9,5.2c-0.1,2-0.5,4.2-1.2,6.7l-5.4,20.3h-10.2l5.1-19.1c0.9-3.3,1.1-5.6,0.6-7
		c-0.5-1.4-1.7-2.1-3.8-2.1c-0.5,0-1.3,0.1-2.4,0.4c-1.1,0.3-2,0.6-2.7,1c0,1-0.1,2.2-0.3,3.3c-0.2,1.2-0.5,2.4-0.9,3.7l-5.3,19.6
		h-10.2L255,58.2z"/>
	<linearGradient id="SVGID_10_" gradientUnits="userSpaceOnUse" x1="305.6678" y1="90.9168" x2="302.6677" y2="29.9164">
		<stop  offset="0" style="stop-color:#F69220"/>
		<stop  offset="1" style="stop-color:#EE6124"/>
	</linearGradient>
	<path class="st9" d="M287,59.6c0.9-3.2,2.1-6,3.7-8.4c1.6-2.4,3.4-4.4,5.5-6c2-1.6,4.2-2.8,6.5-3.6c2.3-0.8,4.5-1.2,6.7-1.2
		c5.1,0,8.7,1.6,10.8,4.7c2.1,3.1,2.4,7.7,0.8,13.8c-0.2,0.6-0.4,1.2-0.6,1.9c-0.2,0.7-0.4,1.3-0.6,1.9h-23.1
		c-0.3,2.1,0.2,3.8,1.6,5c1.4,1.2,3.6,1.8,6.5,1.8c1.9,0,3.7-0.2,5.6-0.5c1.9-0.3,3.5-0.8,4.7-1.3l-0.8,8.3
		c-0.6,0.3-1.4,0.5-2.4,0.8c-1,0.3-2.1,0.5-3.2,0.7c-1.2,0.2-2.4,0.4-3.7,0.5c-1.3,0.1-2.6,0.2-3.9,0.2c-3.2,0-5.9-0.5-8.1-1.4
		c-2.1-1-3.8-2.3-4.9-3.9c-1.1-1.7-1.8-3.6-1.9-5.9C286,64.7,286.3,62.3,287,59.6z M312,55.7c0.2-0.9,0.3-1.7,0.2-2.5
		c0-0.8-0.2-1.5-0.6-2.2c-0.4-0.6-0.9-1.2-1.6-1.6c-0.7-0.4-1.6-0.6-2.8-0.6c-1.1,0-2.2,0.2-3.1,0.6c-0.9,0.4-1.7,0.9-2.5,1.5
		c-0.7,0.6-1.3,1.4-1.9,2.2c-0.5,0.8-1,1.7-1.3,2.6H312z"/>
	<linearGradient id="SVGID_11_" gradientUnits="userSpaceOnUse" x1="344.9874" y1="88.9834" x2="341.9873" y2="27.9827">
		<stop  offset="0" style="stop-color:#F69220"/>
		<stop  offset="1" style="stop-color:#EE6124"/>
	</linearGradient>
	<path class="st10" d="M350.8,76.2c-1,0.3-2.1,0.5-3.4,0.8c-1.3,0.3-2.6,0.5-3.9,0.7c-1.3,0.2-2.7,0.3-4.1,0.4
		c-1.4,0.1-2.7,0.2-3.9,0.2c-3,0-5.5-0.4-7.6-1.3c-2.1-0.9-3.7-2.1-4.9-3.7c-1.2-1.6-1.9-3.6-2.1-5.9c-0.2-2.3,0-4.9,0.8-7.8
		c0.8-2.9,1.9-5.5,3.2-7.9c1.4-2.3,2.9-4.3,4.7-6c1.8-1.6,3.8-2.9,6-3.8c2.2-0.9,4.6-1.3,7.2-1.3c1.4,0,2.6,0.1,3.7,0.4
		c1,0.3,2.1,0.7,3.1,1.2l4.4-16.3l10.6-1.6L350.8,76.2z M332.4,59.1c-0.8,3.1-0.8,5.7,0.1,7.6c0.9,1.9,2.7,2.9,5.5,2.9
		c0.9,0,1.8,0,2.6-0.1c0.8-0.1,1.5-0.1,2-0.2l5-18.5c-0.5-0.4-1.3-0.8-2.2-1c-1-0.3-2-0.4-3-0.4C337.4,49.2,334.1,52.5,332.4,59.1z"
		/>
	<linearGradient id="SVGID_12_" gradientUnits="userSpaceOnUse" x1="372.0661" y1="87.6513" x2="369.066" y2="26.6501">
		<stop  offset="0" style="stop-color:#F69220"/>
		<stop  offset="1" style="stop-color:#EE6124"/>
	</linearGradient>
	<path class="st11" d="M395.5,41.4c-3.9,6.9-7.8,13.4-11.7,19.5c-3.9,6.1-7.9,11.9-12.1,17.6c-1.5,2.1-2.9,3.8-4.3,5.2
		c-1.3,1.4-2.7,2.6-4.1,3.6c-1.4,0.9-2.9,1.6-4.4,2.1c-1.6,0.4-3.3,0.6-5.2,0.6c-1.6,0-3-0.1-4.3-0.4c-1.3-0.3-2.3-0.6-3.1-1l4-8.1
		c1,0.4,1.8,0.6,2.6,0.8c0.8,0.1,1.6,0.2,2.5,0.2c1.8,0,3.4-0.5,4.6-1.5c1.2-1,2.4-2.3,3.6-4.1c-1.1-4.6-2.1-9.7-2.9-15.3
		c-0.8-5.7-1.3-12-1.4-19.1h10.8c0,1.8,0,3.7,0.1,5.8c0.1,2.1,0.2,4.2,0.3,6.3c0.1,2.1,0.3,4.2,0.4,6.2c0.2,2,0.4,3.8,0.6,5.5
		c1-1.6,2.1-3.5,3.3-5.5c1.2-2,2.4-4.1,3.5-6.2c1.2-2.1,2.3-4.2,3.5-6.3c1.1-2.1,2.2-4,3.1-5.8H395.5z"/>
	<linearGradient id="SVGID_13_" gradientUnits="userSpaceOnUse" x1="404.4592" y1="86.0583" x2="401.4591" y2="25.0578">
		<stop  offset="0" style="stop-color:#F69220"/>
		<stop  offset="1" style="stop-color:#EE6124"/>
	</linearGradient>
	<path class="st12" d="M408.3,40.4c3,0,5.4,0.3,7.2,1c1.8,0.7,3.2,1.7,4,2.9c0.9,1.3,1.3,2.8,1.3,4.6c0,1.8-0.3,3.9-0.9,6.1
		l-5.7,21.2c-1.5,0.3-3.7,0.7-6.4,1.1c-2.7,0.4-5.9,0.6-9.6,0.6c-2.3,0-4.4-0.2-6.2-0.6c-1.8-0.4-3.2-1.1-4.3-2
		c-1.1-0.9-1.8-2.2-2.2-3.7c-0.3-1.5-0.2-3.4,0.4-5.5c0.6-2.1,1.5-3.9,2.7-5.3c1.2-1.5,2.7-2.6,4.3-3.5c1.6-0.9,3.4-1.5,5.4-1.9
		c1.9-0.4,3.9-0.6,5.8-0.6c1.3,0,2.5,0.1,3.5,0.2c1,0.1,1.8,0.3,2.4,0.4l0.3-1c0.5-1.7,0.3-3.1-0.5-4.2c-0.8-1-2.5-1.6-5-1.6
		c-1.7,0-3.5,0.1-5.2,0.4c-1.8,0.3-3.3,0.6-4.7,1.1l0.9-8.2c0.6-0.2,1.4-0.4,2.4-0.6s2-0.4,3.1-0.5c1.1-0.2,2.2-0.3,3.4-0.4
		C405.9,40.5,407.1,40.4,408.3,40.4z M401.1,70.2c1,0,2,0,2.9-0.1c0.9,0,1.7-0.1,2.2-0.2l2.1-7.7c-0.4-0.1-1-0.2-1.8-0.3
		c-0.8-0.1-1.5-0.1-2.2-0.1c-1,0-1.9,0.1-2.7,0.2c-0.9,0.1-1.7,0.3-2.4,0.6c-0.7,0.3-1.3,0.8-1.9,1.3c-0.5,0.5-0.9,1.2-1.1,2.1
		c-0.4,1.6-0.2,2.7,0.7,3.3C397.8,69.9,399.2,70.2,401.1,70.2z"/>
</g>
</svg>
